<svg width="21" height="14" viewBox="0 0 21 14" fill="none" xmlns="http://www.w3.org/2000/svg">
<path fill-rule="evenodd" clip-rule="evenodd" d="M7.406 0.199951C6.87574 0.199862 6.35239 0.320257 5.87548 0.552045C5.39856 0.783834 4.98055 1.12095 4.653 1.53795L1.092 6.07295C0.884467 6.33719 0.77166 6.66346 0.77166 6.99945C0.77166 7.33545 0.884467 7.66171 1.092 7.92595L4.653 12.462C4.98055 12.8789 5.39856 13.2161 5.87548 13.4479C6.35239 13.6796 6.87574 13.8 7.406 13.8H18.053C18.716 13.8 19.3519 13.5366 19.8208 13.0677C20.2896 12.5989 20.553 11.963 20.553 11.3V2.69995C20.553 2.03691 20.2896 1.40103 19.8208 0.932184C19.3519 0.463343 18.716 0.199951 18.053 0.199951H7.406ZM9.47 3.46995C9.61063 3.3295 9.80125 3.25061 10 3.25061C10.1988 3.25061 10.3894 3.3295 10.53 3.46995L13 5.93995L15.47 3.46995C15.5387 3.39626 15.6215 3.33716 15.7135 3.29617C15.8055 3.25518 15.9048 3.23314 16.0055 3.23136C16.1062 3.22958 16.2062 3.24811 16.2996 3.28583C16.393 3.32355 16.4778 3.37969 16.549 3.45091C16.6203 3.52213 16.6764 3.60697 16.7141 3.70035C16.7518 3.79374 16.7704 3.89377 16.7686 3.99447C16.7668 4.09518 16.7448 4.19449 16.7038 4.28649C16.6628 4.37849 16.6037 4.46129 16.53 4.52995L14.06 6.99995L16.53 9.46995C16.6625 9.61213 16.7346 9.80017 16.7312 9.99447C16.7277 10.1888 16.649 10.3742 16.5116 10.5116C16.3742 10.649 16.1888 10.7277 15.9945 10.7311C15.8002 10.7346 15.6122 10.6624 15.47 10.53L13 8.05995L10.53 10.53C10.4613 10.6036 10.3785 10.6627 10.2865 10.7037C10.1945 10.7447 10.0952 10.7668 9.99452 10.7685C9.89382 10.7703 9.79379 10.7518 9.7004 10.7141C9.60701 10.6764 9.52218 10.6202 9.45096 10.549C9.37974 10.4778 9.3236 10.3929 9.28588 10.2995C9.24816 10.2062 9.22963 10.1061 9.23141 10.0054C9.23318 9.90473 9.25523 9.80541 9.29622 9.71341C9.33721 9.62141 9.39631 9.53861 9.47 9.46995L11.94 6.99995L9.47 4.52995C9.32955 4.38933 9.25066 4.1987 9.25066 3.99995C9.25066 3.8012 9.32955 3.61058 9.47 3.46995Z" fill="black"/>
</svg>
